# xmcd CD database file
#
# Track frame offsets:
#	150
#	14126
#	30008
#	46911
#	65770
#	80908
#	94901
#
# Disc length: 1527 seconds
#
# Revision: 1
# Processed by: cddbd v1.5.2PL0 Copyright (c) Steve Scherf et al.
# Submitted via: CDex 1.70beta2
#
DISCID=5705f507
DTITLE=Al P.Horn and funk preachers - No faith, no funk
DYEAR=2007
DGENRE=Jazz
TTITLE0=Intro:Main feature
TTITLE1=I've got an Alphorn
TTITLE2=Mooker tea
TTITLE3=Pass the cheese
TTITLE4=Fine time to sing the blues
TTITLE5=F.A.C.T.S.
TTITLE6=Hi heel sneakers
EXTD=YEAR: 2007
EXTT0=
EXTT1=
EXTT2=
EXTT3=
EXTT4=
EXTT5=
EXTT6=
PLAYORDER=
